<svg width="400" height="600" viewBox="0 0 400 600" xmlns="http://www.w3.org/2000/svg">
  <rect width="100%" height="100%" fill="white"/>
  
  <path d="M200,120 Q215,120 215,145 L215,170 Q215,190 200,195 Q185,190 185,170 L185,145 Q185,120 200,120" fill="black"/> <path d="M200,195 L200,210 Q230,215 250,250 L150,250 Q170,215 200,210" fill="black"/> <path id="dress" d="M165,250 Q200,230 235,250 L250,350 Q210,450 200,480 Q190,520 320,580 L80,580 Q210,520 200,480 Q190,450 150,350 Z" fill="#e67e22" stroke="black" stroke-width="1"/>

  <g clip-path="url(#dressClip)">
    <defs>
      <clipPath id="dressClip">
        <path d="M165,250 Q200,230 235,250 L250,350 Q210,450 200,480 Q190,520 320,580 L80,580 Q210,520 200,480 Q190,450 150,350 Z" />
      </clipPath>
    </defs>
    
    <circle cx="200" cy="300" r="40" fill="#2980b9" stroke="#f1c40f" stroke-width="5" stroke-dasharray="4,2"/>
    <circle cx="200" cy="420" r="50" fill="#2980b9" stroke="#f1c40f" stroke-width="5" stroke-dasharray="4,2"/>
    <circle cx="150" cy="550" r="60" fill="#2980b9" stroke="#f1c40f" stroke-width="5" stroke-dasharray="4,2"/>
    <circle cx="250" cy="550" r="60" fill="#2980b9" stroke="#f1c40f" stroke-width="5" stroke-dasharray="4,2"/>
  </g>

  <path d="M165,250 L130,320 L180,350" fill="none" stroke="black" stroke-width="8" stroke-linecap="round"/>
  <path d="M235,250 L260,320 L220,380" fill="none" stroke="black" stroke-width="8" stroke-linecap="round"/>

  <path d="M180,130 Q200,80 220,130 Q230,150 200,160 Q170,150 180,130" fill="#d35400"/>
  <path d="M185,120 Q200,100 215,120" fill="none" stroke="#f1c40f" stroke-width="2"/>
  
  <circle cx="185" cy="175" r="8" fill="none" stroke="black" stroke-width="1"/> <circle cx="215" cy="175" r="8" fill="none" stroke="black" stroke-width="1"/> <path d="M195,185 Q200,190 205,185" fill="none" stroke="red" stroke-width="2"/> </svg>